<?xml version="1.0" encoding="utf-8"?>
<!-- Generator: Adobe Illustrator 17.1.0, SVG Export Plug-In . SVG Version: 6.00 Build 0)  -->
<!DOCTYPE svg PUBLIC "-//W3C//DTD SVG 1.1//EN" "http://www.w3.org/Graphics/SVG/1.1/DTD/svg11.dtd">
<svg version="1.1" xmlns="http://www.w3.org/2000/svg" xmlns:xlink="http://www.w3.org/1999/xlink" x="0px" y="0px"
	 viewBox="1057 819.5 767.5 160.3" enable-background="new 1057 819.5 767.5 160.3" xml:space="preserve">
<g id="Layer_1">
	<g>
		<rect x="1057" y="821" fill="#FFFFFF" width="764.5" height="157.5"/>
		<g>
			<path d="M1264,878.8l-19.8-57.8h16.7l12.2,39.5h0.2l12.2-39.5h15.8l-19.6,57.8H1264z"/>
			<path d="M1301.8,837.4c1.4-3.8,3.4-7,6-9.6c2.6-2.6,5.7-4.7,9.4-6.2c3.7-1.5,7.8-2.2,12.3-2.2c4.5,0,8.7,0.7,12.4,2.2
				c3.7,1.5,6.8,3.5,9.5,6.2c2.6,2.6,4.6,5.9,6,9.6c1.4,3.8,2.1,8,2.1,12.6c0,4.6-0.7,8.8-2.1,12.5c-1.4,3.7-3.4,6.9-6,9.6
				c-2.6,2.6-5.8,4.7-9.5,6.1c-3.7,1.4-7.8,2.1-12.4,2.1c-4.5,0-8.7-0.7-12.3-2.1c-3.7-1.4-6.8-3.4-9.4-6.1c-2.6-2.6-4.6-5.8-6-9.6
				c-1.4-3.7-2.1-7.9-2.1-12.5C1299.7,845.4,1300.4,841.2,1301.8,837.4z M1316.2,856.8c0.4,2.2,1.2,4.2,2.3,5.9
				c1.1,1.8,2.5,3.2,4.3,4.2c1.8,1,4,1.6,6.7,1.6s4.9-0.5,6.8-1.6c1.8-1,3.3-2.4,4.4-4.2c1.1-1.8,1.8-3.7,2.3-5.9
				c0.4-2.2,0.7-4.5,0.7-6.8c0-2.3-0.2-4.6-0.7-6.8c-0.4-2.2-1.2-4.2-2.3-5.9c-1.1-1.7-2.5-3.1-4.4-4.2c-1.8-1.1-4.1-1.6-6.8-1.6
				s-4.9,0.5-6.7,1.6c-1.8,1.1-3.2,2.5-4.3,4.2c-1.1,1.7-1.8,3.7-2.3,5.9c-0.4,2.2-0.7,4.5-0.7,6.8
				C1315.6,852.3,1315.8,854.6,1316.2,856.8z"/>
			<path d="M1380.6,821v10.7h0.2c0.7-1.8,1.8-3.4,3-5c1.3-1.5,2.7-2.8,4.4-3.9c1.6-1.1,3.4-1.9,5.3-2.5c1.9-0.6,3.8-0.9,5.8-0.9
				c1,0,2.2,0.2,3.5,0.6v14.8c-0.7-0.1-1.6-0.3-2.7-0.4c-1-0.1-2.1-0.2-3-0.2c-2.9,0-5.4,0.5-7.4,1.5c-2,1-3.6,2.3-4.9,4
				c-1.2,1.7-2.1,3.6-2.6,5.9c-0.5,2.2-0.8,4.7-0.8,7.3v26.1h-15.9V821H1380.6z"/>
			<path d="M1420.7,821v7.8h0.2c2.1-3,4.6-5.3,7.5-6.9c2.9-1.6,6.3-2.5,10.1-2.5c3.7,0,7,0.7,10,2.1c3,1.4,5.3,3.9,6.9,7.5
				c1.7-2.5,4-4.8,7-6.7c2.9-1.9,6.4-2.9,10.5-2.9c3.1,0,5.9,0.4,8.5,1.1c2.6,0.7,4.8,1.9,6.7,3.6c1.9,1.6,3.3,3.8,4.4,6.4
				c1,2.6,1.6,5.8,1.6,9.6v38.7h-15.9v-32.8c0-1.9-0.1-3.8-0.2-5.5c-0.2-1.7-0.6-3.2-1.2-4.5c-0.7-1.3-1.7-2.3-3-3
				c-1.3-0.7-3.1-1.1-5.3-1.1c-2.2,0-4,0.4-5.4,1.3c-1.4,0.9-2.5,2-3.2,3.4c-0.8,1.4-1.3,2.9-1.6,4.7c-0.3,1.8-0.4,3.5-0.4,5.3v32.2
				h-15.9v-32.4c0-1.7,0-3.4-0.1-5.1c-0.1-1.7-0.4-3.2-0.9-4.6c-0.6-1.4-1.5-2.6-2.8-3.4c-1.3-0.9-3.2-1.3-5.8-1.3
				c-0.7,0-1.7,0.2-3,0.5c-1.2,0.3-2.4,1-3.6,1.9c-1.2,0.9-2.1,2.3-3,4c-0.8,1.8-1.2,4-1.2,6.9v33.6h-15.9V821H1420.7z"/>
			<path d="M1556.7,883.1c-0.6,3-2,5.8-4.1,8.3c-2.1,2.6-5.1,4.8-9.1,6.5c-4,1.8-9.2,2.7-15.9,2.7c-2.8,0-5.7-0.4-8.7-1.1
				c-2.9-0.7-5.6-1.8-8.1-3.3c-2.4-1.5-4.4-3.4-6-5.8c-1.6-2.3-2.5-5.2-2.7-8.4h15.8c0.7,3,2.2,5.1,4.4,6.2c2.2,1.2,4.7,1.7,7.5,1.7
				c4.5,0,7.7-1.3,9.8-4c2-2.7,3-6.1,3-10.2v-7.6h-0.2c-1.7,3.1-4.2,5.3-7.3,6.8c-3.2,1.5-6.5,2.2-10,2.2c-4.3,0-8.1-0.8-11.2-2.3
				c-3.1-1.5-5.7-3.6-7.7-6.3c-2-2.6-3.5-5.7-4.4-9.3c-0.9-3.5-1.4-7.3-1.4-11.2c0-3.7,0.5-7.3,1.6-10.8c1.1-3.5,2.7-6.5,4.8-9.2
				c2.1-2.6,4.7-4.8,7.8-6.3c3.1-1.6,6.7-2.3,10.7-2.3c3.8,0,7.1,0.7,10,2.1c2.9,1.4,5.3,3.8,7.2,7.2h0.2V821h15.1v54.1
				C1557.6,877.5,1557.3,880.1,1556.7,883.1z M1534.9,863.9c1.7-0.9,3.1-2.1,4.3-3.6c1.1-1.5,2-3.2,2.5-5.1c0.6-1.9,0.8-3.9,0.8-6
				c0-2.4-0.2-4.6-0.7-6.8c-0.4-2.1-1.2-4-2.2-5.6c-1-1.6-2.4-2.9-4.1-3.9c-1.7-1-3.9-1.5-6.5-1.5c-2.2,0-4.2,0.4-5.8,1.3
				c-1.6,0.9-2.9,2.1-4,3.6c-1.1,1.5-1.9,3.3-2.3,5.3c-0.5,2-0.7,4-0.7,6.2c0,2.1,0.2,4.2,0.6,6.2c0.4,2.1,1.1,3.9,2.1,5.5
				c1,1.6,2.3,3,4,4c1.6,1,3.7,1.6,6.2,1.6C1531.2,865.2,1533.2,864.8,1534.9,863.9z"/>
			<path d="M1583.2,865c2.4,2.3,5.8,3.5,10.3,3.5c3.2,0,6-0.8,8.3-2.4c2.3-1.6,3.7-3.3,4.2-5.1h14c-2.2,6.9-5.7,11.9-10.3,14.9
				c-4.6,3-10.2,4.5-16.8,4.5c-4.5,0-8.7-0.7-12.3-2.2c-3.7-1.5-6.7-3.5-9.3-6.2c-2.5-2.7-4.5-5.9-5.9-9.6
				c-1.4-3.7-2.1-7.8-2.1-12.3c0-4.3,0.7-8.3,2.1-12.1c1.4-3.7,3.4-7,6-9.7c2.6-2.7,5.7-4.9,9.3-6.4c3.6-1.6,7.6-2.3,12-2.3
				c4.9,0,9.2,1,12.9,2.9c3.7,1.9,6.7,4.5,9,7.7c2.3,3.2,4,6.9,5.1,11c1,4.1,1.4,8.4,1.1,12.9h-41.7
				C1579.5,858.9,1580.8,862.7,1583.2,865z M1601.2,834.6c-1.9-2.1-4.8-3.1-8.7-3.1c-2.5,0-4.6,0.4-6.3,1.3c-1.7,0.9-3,1.9-4,3.2
				c-1,1.3-1.7,2.6-2.1,4c-0.4,1.4-0.7,2.7-0.7,3.8h25.8C1604.4,839.7,1603.1,836.6,1601.2,834.6z"/>
			<path d="M1638.7,878.8l-19.8-57.8h16.7l12.2,39.5h0.2l12.2-39.5h15.8l-19.6,57.8H1638.7z"/>
			<path d="M1694.9,821v57.8h-15.9V821H1694.9z"/>
			<path d="M1718.6,821v8.1h0.3c2-3.4,4.6-5.8,7.8-7.3c3.2-1.5,6.5-2.3,9.8-2.3c4.3,0,7.7,0.6,10.5,1.7c2.7,1.2,4.9,2.8,6.4,4.8
				c1.6,2.1,2.7,4.5,3.3,7.5c0.6,2.9,1,6.2,1,9.8v35.6h-15.9v-32.7c0-4.8-0.7-8.3-2.2-10.7c-1.5-2.3-4.1-3.5-7.9-3.5
				c-4.3,0-7.5,1.3-9.4,3.9c-1.9,2.6-2.9,6.8-2.9,12.7v30.3h-15.9V821H1718.6z"/>
			<path d="M1820.1,883.1c-0.6,3-2,5.8-4.1,8.3c-2.1,2.6-5.1,4.8-9.1,6.5c-4,1.8-9.2,2.7-15.9,2.7c-2.8,0-5.7-0.4-8.7-1.1
				c-2.9-0.7-5.6-1.8-8.1-3.3c-2.4-1.5-4.4-3.4-6-5.8c-1.6-2.3-2.5-5.2-2.7-8.4h15.8c0.7,3,2.2,5.1,4.4,6.2c2.2,1.2,4.7,1.7,7.5,1.7
				c4.5,0,7.7-1.3,9.8-4c2-2.7,3-6.1,3-10.2v-7.6h-0.2c-1.7,3.1-4.2,5.3-7.3,6.8c-3.2,1.5-6.5,2.2-10,2.2c-4.3,0-8.1-0.8-11.2-2.3
				c-3.1-1.5-5.7-3.6-7.7-6.3c-2-2.6-3.5-5.7-4.4-9.3c-0.9-3.5-1.4-7.3-1.4-11.2c0-3.7,0.5-7.3,1.6-10.8c1.1-3.5,2.7-6.5,4.8-9.2
				c2.1-2.6,4.7-4.8,7.8-6.3c3.1-1.6,6.7-2.3,10.7-2.3c3.8,0,7.1,0.7,10,2.1c2.9,1.4,5.3,3.8,7.2,7.2h0.2V821h15.1v54.1
				C1821.1,877.5,1820.8,880.1,1820.1,883.1z M1798.4,863.9c1.7-0.9,3.1-2.1,4.3-3.6c1.1-1.5,2-3.2,2.5-5.1c0.6-1.9,0.8-3.9,0.8-6
				c0-2.4-0.2-4.6-0.7-6.8c-0.4-2.1-1.2-4-2.2-5.6c-1-1.6-2.4-2.9-4.1-3.9c-1.7-1-3.9-1.5-6.5-1.5c-2.2,0-4.2,0.4-5.8,1.3
				c-1.6,0.9-2.9,2.1-4,3.6c-1.1,1.5-1.9,3.3-2.3,5.3c-0.5,2-0.7,4-0.7,6.2c0,2.1,0.2,4.2,0.6,6.2c0.4,2.1,1.1,3.9,2.1,5.5
				c1,1.6,2.3,3,4,4c1.6,1,3.7,1.6,6.2,1.6C1794.7,865.2,1796.7,864.8,1798.4,863.9z"/>
			<path d="M1421.6,977.4c-3.6,1.6-7.7,2.3-12.2,2.3c-3.6,0-7-0.5-10.1-1.6c-3.2-1-5.9-2.6-8.2-4.6c-2.3-2-4.1-4.5-5.5-7.5
				c-1.3-2.9-2-6.3-2-10.1c0-2.8,0.5-5.4,1.5-7.8c1-2.3,2.3-4.5,4-6.4c1.7-1.9,3.6-3.6,5.8-5.1c2.2-1.5,4.4-2.8,6.7-3.9
				c-2.2-2.6-4-5.2-5.4-7.8c-1.5-2.6-2.2-5.7-2.2-9.2c0-2.8,0.6-5.3,1.7-7.5c1.2-2.2,2.7-4.2,4.6-5.8c1.9-1.6,4.2-2.8,6.7-3.7
				c2.5-0.9,5.1-1.3,7.8-1.3c3.1,0,5.9,0.4,8.6,1.2c2.6,0.8,5,2,6.9,3.6c2,1.6,3.5,3.6,4.7,6c1.2,2.4,1.7,5.1,1.7,8.3
				c0,4.7-1.4,8.6-4.1,11.9c-2.7,3.2-6.1,5.9-10.1,8.1l10.3,12.6c0.8-1.5,1.5-3,1.9-4.6c0.4-1.6,0.8-3.2,1-4.9h13.8
				c-0.4,3.6-1.2,7-2.5,10.4c-1.3,3.4-3,6.4-5.3,9.3l16.2,18.9h-19.5l-6.5-7.9C1428.7,973.5,1425.3,975.8,1421.6,977.4z
				 M1405.7,945.2c-1.3,0.8-2.5,1.8-3.6,2.9c-1,1.1-1.9,2.3-2.5,3.7c-0.6,1.3-0.9,2.8-0.9,4.5c0,1.4,0.3,2.8,0.9,4.1
				c0.6,1.3,1.5,2.4,2.5,3.4c1,0.9,2.3,1.7,3.6,2.2c1.4,0.6,2.8,0.8,4.3,0.8c2.8,0,5.3-0.7,7.4-2c2.1-1.3,4.1-3,6-5.1l-13.6-16.7
				C1408.4,943.6,1407,944.3,1405.7,945.2z M1420.5,910.4c-1.5-1.5-3.2-2.2-5.1-2.2c-1.9,0-3.6,0.7-5,2c-1.4,1.3-2.1,3-2.1,5.1
				c0,2.5,0.7,4.7,2,6.5c1.3,1.8,2.8,3.6,4.2,5.5c2.2-1.4,4.2-2.9,5.8-4.6c1.6-1.6,2.4-3.9,2.4-6.8
				C1422.7,913.7,1422,911.9,1420.5,910.4z"/>
			<path d="M1515.8,930.8c-2.5,0-4.7,0.6-6.4,1.7c-1.7,1.2-3.1,2.6-4.2,4.5c-1.1,1.8-1.8,3.8-2.3,6c-0.4,2.2-0.7,4.4-0.7,6.5
				c0,2.1,0.2,4.2,0.7,6.4c0.4,2.2,1.2,4.1,2.2,5.9c1,1.8,2.4,3.2,4.1,4.3c1.7,1.1,3.8,1.7,6.3,1.7c3.8,0,6.7-1.1,8.8-3.2
				c2-2.1,3.3-5,3.9-8.6h15.3c-1,7.7-4,13.5-8.9,17.6c-4.9,4-11.2,6-18.9,6c-4.3,0-8.3-0.7-11.9-2.2c-3.6-1.5-6.7-3.5-9.2-6.1
				c-2.5-2.6-4.5-5.7-5.9-9.3c-1.4-3.6-2.1-7.6-2.1-11.9c0-4.5,0.7-8.6,2-12.5c1.3-3.8,3.2-7.2,5.8-10c2.5-2.8,5.6-5,9.3-6.5
				c3.7-1.6,7.8-2.3,12.5-2.3c3.4,0,6.7,0.4,9.9,1.3c3.2,0.9,6,2.3,8.5,4.1c2.5,1.8,4.5,4.1,6.1,6.8c1.6,2.7,2.5,5.9,2.7,9.7h-15.5
				C1526.5,934.2,1522.5,930.8,1515.8,930.8z"/>
			<path d="M1563.7,920.4v10.7h0.2c0.7-1.8,1.8-3.4,3-5c1.3-1.5,2.7-2.8,4.4-3.9c1.6-1.1,3.4-1.9,5.3-2.5c1.9-0.6,3.8-0.9,5.8-0.9
				c1,0,2.2,0.2,3.5,0.6v14.8c-0.7-0.1-1.6-0.3-2.7-0.4c-1-0.1-2.1-0.2-3-0.2c-2.9,0-5.4,0.5-7.4,1.5c-2,1-3.6,2.3-4.9,4
				c-1.2,1.7-2.1,3.6-2.6,5.9c-0.5,2.2-0.8,4.7-0.8,7.3v26.1h-15.9v-57.8H1563.7z"/>
			<path d="M1605.7,964.4c2.4,2.3,5.8,3.5,10.3,3.5c3.2,0,6-0.8,8.3-2.4c2.3-1.6,3.7-3.3,4.2-5.1h14c-2.2,6.9-5.7,11.9-10.3,14.9
				c-4.6,3-10.2,4.5-16.8,4.5c-4.5,0-8.7-0.7-12.3-2.2c-3.7-1.5-6.7-3.5-9.3-6.2c-2.5-2.7-4.5-5.9-5.9-9.6
				c-1.4-3.7-2.1-7.8-2.1-12.3c0-4.3,0.7-8.3,2.1-12.1c1.4-3.7,3.4-7,6-9.7c2.6-2.7,5.7-4.9,9.3-6.4c3.6-1.6,7.6-2.3,12-2.3
				c4.9,0,9.2,1,12.9,2.9c3.7,1.9,6.7,4.5,9,7.7c2.3,3.2,4,6.9,5.1,11c1,4.1,1.4,8.4,1.1,12.9h-41.7
				C1602,958.4,1603.3,962.1,1605.7,964.4z M1623.6,934c-1.9-2.1-4.8-3.1-8.7-3.1c-2.5,0-4.6,0.4-6.3,1.3c-1.7,0.9-3,1.9-4,3.2
				c-1,1.3-1.7,2.6-2.1,4c-0.4,1.4-0.7,2.7-0.7,3.8h25.8C1626.8,939.1,1625.5,936.1,1623.6,934z"/>
			<path d="M1650.5,928.9c1.6-2.5,3.7-4.4,6.3-5.9c2.5-1.5,5.4-2.6,8.6-3.2c3.2-0.6,6.4-1,9.6-1c2.9,0,5.9,0.2,8.8,0.6
				c3,0.4,5.7,1.2,8.2,2.4c2.5,1.2,4.5,2.9,6,5c1.6,2.1,2.3,4.9,2.3,8.4v30.1c0,2.6,0.1,5.1,0.4,7.5c0.3,2.4,0.8,4.2,1.6,5.4h-16.1
				c-0.3-0.9-0.5-1.8-0.7-2.7c-0.2-0.9-0.3-1.9-0.4-2.9c-2.5,2.6-5.5,4.4-8.9,5.5c-3.4,1-6.9,1.6-10.5,1.6c-2.8,0-5.3-0.3-7.7-1
				c-2.4-0.7-4.5-1.7-6.3-3.1c-1.8-1.4-3.2-3.2-4.2-5.4c-1-2.2-1.5-4.7-1.5-7.7c0-3.3,0.6-6,1.7-8.1c1.2-2.1,2.6-3.8,4.5-5.1
				c1.8-1.3,3.9-2.2,6.3-2.9c2.3-0.6,4.7-1.1,7.1-1.5c2.4-0.4,4.7-0.7,7-0.9c2.3-0.2,4.4-0.6,6.2-1c1.8-0.4,3.2-1.1,4.2-2
				c1-0.9,1.5-2.1,1.5-3.7c0-1.7-0.3-3.1-0.8-4.1c-0.6-1-1.3-1.8-2.2-2.3c-0.9-0.6-2-0.9-3.2-1.1c-1.2-0.2-2.6-0.3-4-0.3
				c-3.1,0-5.6,0.7-7.4,2c-1.8,1.3-2.8,3.6-3.1,6.7h-15.9C1648,934.5,1648.9,931.4,1650.5,928.9z M1681.9,951.4
				c-1,0.3-2.1,0.6-3.2,0.8c-1.2,0.2-2.4,0.4-3.6,0.6c-1.3,0.2-2.5,0.3-3.8,0.6c-1.2,0.2-2.4,0.5-3.5,0.9c-1.2,0.4-2.2,0.9-3,1.5
				c-0.9,0.6-1.5,1.4-2.1,2.4c-0.5,1-0.8,2.2-0.8,3.7c0,1.4,0.3,2.6,0.8,3.6c0.5,1,1.2,1.7,2.1,2.3c0.9,0.6,1.9,1,3.1,1.2
				c1.2,0.2,2.4,0.3,3.7,0.3c3.1,0,5.6-0.5,7.3-1.6c1.7-1,3-2.3,3.8-3.7c0.8-1.5,1.3-2.9,1.5-4.4c0.2-1.5,0.3-2.7,0.3-3.6V950
				C1683.8,950.6,1682.9,951,1681.9,951.4z"/>
			<path d="M1740.4,920.4v10.6h-11.6v28.6c0,2.7,0.4,4.5,1.3,5.4c0.9,0.9,2.7,1.3,5.4,1.3c0.9,0,1.8,0,2.6-0.1
				c0.8-0.1,1.6-0.2,2.3-0.3v12.3c-1.3,0.2-2.8,0.4-4.5,0.4c-1.6,0.1-3.2,0.1-4.8,0.1c-2.5,0-4.8-0.2-7-0.5c-2.2-0.3-4.1-1-5.8-2
				c-1.7-1-3-2.3-4-4.1c-1-1.8-1.5-4.1-1.5-7v-34.1h-9.6v-10.6h9.6v-17.3h15.9v17.3H1740.4z"/>
			<path d="M1745.1,911.5v-13.1h15.9v13.1 M1761,920.4v57.8h-15.9v-57.8H1761z"/>
			<path d="M1786.6,964.4c2.4,2.3,5.8,3.5,10.3,3.5c3.2,0,6-0.8,8.3-2.4c2.3-1.6,3.7-3.3,4.2-5.1h14c-2.2,6.9-5.7,11.9-10.3,14.9
				c-4.6,3-10.2,4.5-16.8,4.5c-4.5,0-8.7-0.7-12.3-2.2c-3.7-1.5-6.7-3.5-9.3-6.2c-2.5-2.7-4.5-5.9-5.9-9.6
				c-1.4-3.7-2.1-7.8-2.1-12.3c0-4.3,0.7-8.3,2.1-12.1c1.4-3.7,3.4-7,6-9.7c2.6-2.7,5.7-4.9,9.3-6.4c3.6-1.6,7.6-2.3,12-2.3
				c4.9,0,9.2,1,12.9,2.9c3.7,1.9,6.7,4.5,9,7.7c2.3,3.2,4,6.9,5.1,11c1,4.1,1.4,8.4,1.1,12.9h-41.7
				C1782.9,958.4,1784.2,962.1,1786.6,964.4z M1804.6,934c-1.9-2.1-4.8-3.1-8.7-3.1c-2.5,0-4.6,0.4-6.3,1.3c-1.7,0.9-3,1.9-4,3.2
				c-1,1.3-1.7,2.6-2.1,4c-0.4,1.4-0.7,2.7-0.7,3.8h25.8C1807.8,939.1,1806.5,936.1,1804.6,934z"/>
		</g>
	</g>
</g>
<g id="Isolation_Mode">
</g>
</svg>
