<?xml version="1.0" encoding="utf-8"?>
<!-- Generator: Adobe Illustrator 17.1.0, SVG Export Plug-In . SVG Version: 6.00 Build 0)  -->
<!DOCTYPE svg PUBLIC "-//W3C//DTD SVG 1.1//EN" "http://www.w3.org/Graphics/SVG/1.1/DTD/svg11.dtd">
<svg version="1.1" id="Layer_1" xmlns="http://www.w3.org/2000/svg" xmlns:xlink="http://www.w3.org/1999/xlink" x="0px" y="0px"
	 viewBox="1057 819.5 767.5 160.3" enable-background="new 1057 819.5 767.5 160.3" xml:space="preserve">
<g>
	<path d="M1301.2,831.7c-2.5,0-4.7,0.6-6.4,1.7c-1.7,1.2-3.1,2.6-4.2,4.5c-1.1,1.8-1.8,3.8-2.3,6c-0.4,2.2-0.7,4.4-0.7,6.5
		c0,2.1,0.2,4.2,0.7,6.4c0.4,2.2,1.2,4.1,2.2,5.9c1,1.7,2.4,3.2,4.1,4.3c1.7,1.1,3.8,1.7,6.2,1.7c3.8,0,6.7-1.1,8.8-3.2
		c2-2.1,3.3-5,3.9-8.5h15.3c-1,7.7-4,13.5-8.9,17.5c-4.9,4-11.2,6-18.9,6c-4.3,0-8.3-0.7-11.9-2.2c-3.6-1.5-6.7-3.5-9.2-6.1
		c-2.5-2.6-4.5-5.7-5.9-9.3c-1.4-3.6-2.1-7.6-2.1-11.9c0-4.5,0.7-8.6,2-12.4c1.3-3.8,3.2-7.1,5.7-9.9c2.5-2.8,5.6-5,9.3-6.5
		c3.6-1.6,7.8-2.3,12.5-2.3c3.4,0,6.7,0.4,9.9,1.3c3.2,0.9,6,2.3,8.5,4.1c2.5,1.8,4.5,4.1,6.1,6.8c1.6,2.7,2.5,5.9,2.7,9.7h-15.5
		C1311.9,835.1,1308,831.7,1301.2,831.7z"/>
	<path d="M1374.8,879.1v-8h-0.3c-2,3.3-4.6,5.8-7.8,7.3c-3.2,1.5-6.5,2.2-9.8,2.2c-4.2,0-7.7-0.6-10.4-1.7c-2.7-1.1-4.9-2.7-6.4-4.7
		c-1.6-2-2.7-4.5-3.3-7.5c-0.6-2.9-0.9-6.2-0.9-9.8v-35.5h15.8V854c0,4.8,0.7,8.3,2.2,10.7c1.5,2.3,4.1,3.5,7.9,3.5
		c4.3,0,7.4-1.3,9.4-3.8c1.9-2.6,2.9-6.8,2.9-12.7v-30.2h15.8v57.7H1374.8z"/>
	<path d="M1415.5,821.4v10.7h0.2c0.7-1.8,1.7-3.4,3-5c1.3-1.5,2.7-2.8,4.4-3.9c1.6-1.1,3.4-1.9,5.2-2.5c1.9-0.6,3.8-0.9,5.8-0.9
		c1,0,2.2,0.2,3.5,0.6v14.7c-0.7-0.1-1.6-0.3-2.7-0.4c-1-0.1-2-0.2-3-0.2c-2.9,0-5.4,0.5-7.4,1.5c-2,1-3.6,2.3-4.9,4
		c-1.2,1.7-2.1,3.6-2.6,5.9c-0.5,2.2-0.8,4.7-0.8,7.3v26h-15.8v-57.7H1415.5z"/>
	<path d="M1457.7,821.4v10.7h0.2c0.7-1.8,1.7-3.4,3-5c1.3-1.5,2.7-2.8,4.4-3.9c1.6-1.1,3.4-1.9,5.2-2.5c1.9-0.6,3.8-0.9,5.8-0.9
		c1,0,2.2,0.2,3.5,0.6v14.7c-0.7-0.1-1.6-0.3-2.7-0.4c-1-0.1-2-0.2-3-0.2c-2.9,0-5.4,0.5-7.4,1.5c-2,1-3.6,2.3-4.9,4
		c-1.2,1.7-2.1,3.6-2.6,5.9c-0.5,2.2-0.8,4.7-0.8,7.3v26h-15.8v-57.7H1457.7z"/>
	<path d="M1500.9,821.4v57.7H1485v-57.7H1500.9z"/>
	<path d="M1538.7,831.7c-2.5,0-4.7,0.6-6.4,1.7c-1.7,1.2-3.1,2.6-4.2,4.5c-1.1,1.8-1.8,3.8-2.3,6c-0.4,2.2-0.7,4.4-0.7,6.5
		c0,2.1,0.2,4.2,0.7,6.4c0.4,2.2,1.2,4.1,2.2,5.9c1,1.7,2.4,3.2,4.1,4.3c1.7,1.1,3.8,1.7,6.2,1.7c3.8,0,6.7-1.1,8.8-3.2
		c2-2.1,3.3-5,3.9-8.5h15.3c-1,7.7-4,13.5-8.9,17.5c-4.9,4-11.2,6-18.9,6c-4.3,0-8.3-0.7-11.9-2.2c-3.6-1.5-6.7-3.5-9.2-6.1
		c-2.5-2.6-4.5-5.7-5.9-9.3c-1.4-3.6-2.1-7.6-2.1-11.9c0-4.5,0.7-8.6,2-12.4c1.3-3.8,3.2-7.1,5.7-9.9c2.5-2.8,5.6-5,9.3-6.5
		c3.6-1.6,7.8-2.3,12.5-2.3c3.4,0,6.7,0.4,9.9,1.3c3.2,0.9,6,2.3,8.5,4.1c2.5,1.8,4.5,4.1,6.1,6.8c1.6,2.7,2.5,5.9,2.7,9.7h-15.5
		C1549.4,835.1,1545.5,831.7,1538.7,831.7z"/>
	<path d="M1612.3,879.1v-8h-0.3c-2,3.3-4.6,5.8-7.8,7.3c-3.2,1.5-6.5,2.2-9.8,2.2c-4.2,0-7.7-0.6-10.4-1.7c-2.7-1.1-4.9-2.7-6.4-4.7
		c-1.6-2-2.7-4.5-3.3-7.5c-0.6-2.9-0.9-6.2-0.9-9.8v-35.5h15.8V854c0,4.8,0.7,8.3,2.2,10.7c1.5,2.3,4.1,3.5,7.9,3.5
		c4.3,0,7.4-1.3,9.4-3.8c1.9-2.6,2.9-6.8,2.9-12.7v-30.2h15.8v57.7H1612.3z"/>
	<path d="M1654,821v58.1h-15.8V821H1654z"/>
	<path d="M1703.7,879.1v-8h-0.3c-2,3.3-4.6,5.8-7.8,7.3c-3.2,1.5-6.5,2.2-9.8,2.2c-4.2,0-7.7-0.6-10.4-1.7c-2.7-1.1-4.9-2.7-6.4-4.7
		c-1.6-2-2.7-4.5-3.3-7.5c-0.6-2.9-0.9-6.2-0.9-9.8v-35.5h15.8V854c0,4.8,0.7,8.3,2.2,10.7c1.5,2.3,4.1,3.5,7.9,3.5
		c4.3,0,7.4-1.3,9.4-3.8c1.9-2.6,2.9-6.8,2.9-12.7v-30.2h15.8v57.7H1703.7z"/>
	<path d="M1744.6,821.4v7.8h0.2c2.1-3,4.6-5.3,7.5-6.9c2.9-1.6,6.3-2.5,10.1-2.5c3.6,0,7,0.7,10,2.1c3,1.4,5.3,3.9,6.9,7.5
		c1.7-2.5,4-4.8,7-6.7c2.9-1.9,6.4-2.9,10.4-2.9c3.1,0,5.9,0.4,8.5,1.1c2.6,0.7,4.8,1.9,6.7,3.6c1.9,1.6,3.3,3.8,4.4,6.4
		c1,2.6,1.6,5.8,1.6,9.5v38.6h-15.8v-32.7c0-1.9-0.1-3.8-0.2-5.5c-0.1-1.7-0.6-3.2-1.2-4.5c-0.7-1.3-1.7-2.3-3-3
		c-1.3-0.7-3.1-1.1-5.3-1.1c-2.2,0-4,0.4-5.4,1.3c-1.4,0.9-2.5,2-3.2,3.3c-0.8,1.4-1.3,2.9-1.6,4.7c-0.3,1.7-0.4,3.5-0.4,5.3v32.1
		h-15.8v-32.4c0-1.7,0-3.4-0.1-5.1c-0.1-1.7-0.4-3.2-0.9-4.6c-0.6-1.4-1.5-2.5-2.8-3.4c-1.3-0.9-3.2-1.3-5.7-1.3
		c-0.7,0-1.7,0.2-3,0.5c-1.2,0.3-2.4,1-3.6,1.9c-1.2,0.9-2.1,2.3-3,4c-0.8,1.7-1.2,4-1.2,6.9v33.5h-15.8v-57.7H1744.6z"/>
	<path d="M1596.4,978.3l-19.8-57.7h16.6l12.2,39.4h0.2l12.2-39.4h15.7l-19.5,57.7H1596.4z"/>
	<path d="M1639,911.6v-13.1h15.8v13.1H1639z M1654.8,920.6v57.7H1639v-57.7H1654.8z"/>
	<path d="M1697.2,920.6v10.6h-11.6v28.6c0,2.7,0.4,4.5,1.3,5.4c0.9,0.9,2.7,1.3,5.4,1.3c0.9,0,1.7,0,2.6-0.1
		c0.8-0.1,1.6-0.2,2.3-0.3v12.3c-1.3,0.2-2.8,0.4-4.5,0.4c-1.6,0.1-3.2,0.1-4.8,0.1c-2.5,0-4.8-0.2-7-0.5c-2.2-0.3-4.1-1-5.8-2
		c-1.7-1-3-2.3-4-4.1c-1-1.8-1.5-4.1-1.5-7v-34h-9.6v-10.6h9.6v-17.3h15.8v17.3H1697.2z"/>
	<path d="M1706.2,929.1c1.6-2.5,3.7-4.4,6.2-5.9c2.5-1.5,5.4-2.5,8.5-3.2c3.2-0.6,6.3-0.9,9.5-0.9c2.9,0,5.8,0.2,8.8,0.6
		c3,0.4,5.7,1.2,8.1,2.4c2.5,1.2,4.5,2.8,6,5c1.6,2.1,2.3,4.9,2.3,8.4v30c0,2.6,0.1,5.1,0.4,7.5c0.3,2.4,0.8,4.2,1.6,5.4h-16.1
		c-0.3-0.9-0.5-1.8-0.7-2.7c-0.2-0.9-0.3-1.9-0.4-2.8c-2.5,2.6-5.5,4.4-8.9,5.5c-3.4,1-6.9,1.6-10.5,1.6c-2.8,0-5.3-0.3-7.7-1
		c-2.4-0.7-4.5-1.7-6.2-3.1c-1.8-1.4-3.2-3.2-4.2-5.4c-1-2.2-1.5-4.7-1.5-7.7c0-3.3,0.6-6,1.7-8.1c1.2-2.1,2.6-3.8,4.5-5.1
		c1.8-1.3,3.9-2.2,6.2-2.8c2.3-0.6,4.7-1.1,7.1-1.5c2.4-0.4,4.7-0.7,7-0.9c2.3-0.2,4.4-0.6,6.1-1c1.8-0.4,3.2-1.1,4.2-2
		c1-0.9,1.5-2.1,1.5-3.7c0-1.7-0.3-3.1-0.8-4.1c-0.6-1-1.3-1.8-2.2-2.3c-0.9-0.6-2-0.9-3.2-1.1c-1.2-0.2-2.5-0.3-4-0.3
		c-3.1,0-5.6,0.7-7.4,2c-1.8,1.3-2.8,3.6-3.1,6.7h-15.8C1703.7,934.6,1704.6,931.5,1706.2,929.1z M1737.5,951.4
		c-1,0.3-2.1,0.6-3.2,0.8c-1.2,0.2-2.4,0.4-3.6,0.6c-1.3,0.1-2.5,0.3-3.8,0.6c-1.2,0.2-2.4,0.5-3.5,0.9c-1.2,0.4-2.2,0.9-3,1.5
		c-0.9,0.6-1.5,1.4-2.1,2.4c-0.5,1-0.8,2.2-0.8,3.7c0,1.4,0.3,2.6,0.8,3.6c0.5,1,1.2,1.7,2.1,2.3c0.9,0.6,1.9,0.9,3.1,1.2
		c1.2,0.2,2.4,0.3,3.7,0.3c3.1,0,5.5-0.5,7.3-1.6c1.7-1,3-2.3,3.8-3.7c0.8-1.5,1.3-2.9,1.5-4.4c0.2-1.5,0.3-2.7,0.3-3.6V950
		C1739.4,950.6,1738.6,951.1,1737.5,951.4z"/>
	<path d="M1783.2,964.4c2.4,2.3,5.8,3.5,10.3,3.5c3.2,0,6-0.8,8.3-2.4c2.3-1.6,3.7-3.3,4.2-5.1h14c-2.2,6.9-5.7,11.9-10.3,14.8
		c-4.6,3-10.2,4.5-16.7,4.5c-4.5,0-8.6-0.7-12.3-2.2c-3.6-1.5-6.7-3.5-9.3-6.2c-2.5-2.7-4.5-5.9-5.9-9.6c-1.4-3.7-2.1-7.8-2.1-12.3
		c0-4.3,0.7-8.3,2.1-12.1c1.4-3.7,3.4-6.9,6-9.7c2.6-2.7,5.7-4.9,9.3-6.4c3.6-1.6,7.6-2.3,12-2.3c4.9,0,9.2,0.9,12.8,2.8
		c3.6,1.9,6.6,4.4,9,7.6c2.3,3.2,4,6.8,5.1,10.9c1,4.1,1.4,8.4,1.1,12.8h-41.6C1779.5,958.4,1780.8,962.1,1783.2,964.4z
		 M1801.1,934.1c-1.9-2.1-4.8-3.1-8.6-3.1c-2.5,0-4.6,0.4-6.3,1.3c-1.7,0.9-3,1.9-4,3.2c-1,1.3-1.7,2.6-2.1,4
		c-0.4,1.4-0.7,2.7-0.7,3.8h25.8C1804.3,939.2,1803,936.2,1801.1,934.1z"/>
</g>
</svg>
